# This file uses centimeters as units for non-parametric coordinates.

mtllib Plate_01.mtl
g default
v 98.200655 31.907322 0.665611
v 83.534464 60.691335 0.665611
v 60.691335 83.534455 0.665611
v 31.907322 98.200636 0.665611
v 0.000000 103.254256 0.665611
v -31.907322 98.200636 0.665611
v -60.691326 83.534445 0.665611
v -83.534436 60.691316 0.665611
v -98.200617 31.907313 0.665611
v -103.254237 0.000000 0.665611
v -98.200617 -31.907303 0.665611
v -83.534426 -60.691307 0.665611
v -60.691312 -83.534436 0.665611
v -31.907313 -98.200588 0.665611
v -0.000003 -103.254208 0.665611
v 31.907303 -98.200588 0.665611
v 60.691302 -83.534417 0.665611
v 83.534407 -60.691307 0.665611
v 98.200588 -31.907303 0.665611
v 103.254208 0.000000 0.665611
v 98.200655 31.907322 2.871378
v 83.534464 60.691335 2.871378
v 60.691335 83.534455 2.871378
v 31.907322 98.200636 2.871378
v 0.000000 103.254256 2.871378
v -31.907322 98.200636 2.871378
v -60.691326 83.534445 2.871378
v -83.534436 60.691316 2.871378
v -98.200617 31.907313 2.871378
v -103.254237 0.000000 2.871378
v -98.200617 -31.907303 2.871378
v -83.534426 -60.691307 2.871378
v -60.691312 -83.534436 2.871378
v -31.907313 -98.200588 2.871378
v -0.000003 -103.254208 2.871378
v 31.907303 -98.200588 2.871378
v 60.691302 -83.534417 2.871378
v 83.534407 -60.691307 2.871378
v 98.200588 -31.907303 2.871378
v 103.254208 0.000000 2.871378
v 0.000000 0.000000 0.665611
v 0.000000 0.000000 2.871378
v 122.690029 39.864386 8.717838
v 104.366360 75.826579 8.717838
v 102.715547 74.627187 10.023142
v 120.749393 39.233832 10.023142
v 75.826589 104.366331 8.717838
v 74.627197 102.715518 10.023142
v 39.864407 122.690001 8.717838
v 39.233854 120.749355 10.023142
v 0.000004 129.003905 8.717838
v 0.000003 126.963381 10.023142
v -39.864388 122.690001 8.717838
v -39.233835 120.749355 10.023142
v -75.826570 104.366322 8.717838
v -74.627178 102.715509 10.023142
v -104.366312 75.826555 8.717838
v -102.715499 74.627163 10.023142
v -122.689982 39.864374 8.717838
v -120.749336 39.233820 10.023142
v -129.003838 -0.000006 8.717838
v -126.963315 -0.000005 10.023142
v -122.689982 -39.864386 8.717838
v -120.749336 -39.233830 10.023142
v -104.366303 -75.826551 8.717838
v -102.715480 -74.627163 10.023142
v -75.826551 -104.366331 8.717838
v -74.627159 -102.715518 10.023142
v -39.864376 -122.689953 8.717838
v -39.233823 -120.749308 10.023142
v -0.000000 -129.003829 8.717838
v -0.000000 -126.963315 10.023142
v 39.864369 -122.689953 8.717838
v 39.233816 -120.749308 10.023142
v 75.826546 -104.366293 8.717838
v 74.627159 -102.715480 10.023142
v 104.366284 -75.826551 8.717838
v 102.715471 -74.627163 10.023142
v 122.689953 -39.864386 8.717838
v 120.749308 -39.233830 10.023142
v 129.003810 -0.000006 8.717838
v 126.963286 -0.000005 10.023142
vt 0.648603 0.107966
vt 0.626409 0.064408
vt 0.591842 0.029841
vt 0.548284 0.007647
vt 0.500000 -0.000000
vt 0.451716 0.007647
vt 0.408159 0.029841
vt 0.373591 0.064409
vt 0.351397 0.107966
vt 0.343750 0.156250
vt 0.351397 0.204534
vt 0.373591 0.248091
vt 0.408159 0.282659
vt 0.451716 0.304853
vt 0.500000 0.312500
vt 0.548284 0.304853
vt 0.591841 0.282659
vt 0.626409 0.248091
vt 0.648603 0.204534
vt 0.656250 0.156250
vt 0.375000 0.312500
vt 0.387500 0.312500
vt 0.400000 0.312500
vt 0.412500 0.312500
vt 0.425000 0.312500
vt 0.437500 0.312500
vt 0.450000 0.312500
vt 0.462500 0.312500
vt 0.475000 0.312500
vt 0.487500 0.312500
vt 0.500000 0.312500
vt 0.512500 0.312500
vt 0.525000 0.312500
vt 0.537500 0.312500
vt 0.550000 0.312500
vt 0.562500 0.312500
vt 0.575000 0.312500
vt 0.587500 0.312500
vt 0.600000 0.312500
vt 0.612500 0.312500
vt 0.625000 0.312500
vt 0.375000 0.688440
vt 0.387500 0.688440
vt 0.400000 0.688440
vt 0.412500 0.688440
vt 0.425000 0.688440
vt 0.437500 0.688440
vt 0.450000 0.688440
vt 0.462500 0.688440
vt 0.475000 0.688440
vt 0.487500 0.688440
vt 0.500000 0.688440
vt 0.512500 0.688440
vt 0.525000 0.688440
vt 0.537500 0.688440
vt 0.550000 0.688440
vt 0.562500 0.688440
vt 0.575000 0.688440
vt 0.587500 0.688440
vt 0.600000 0.688440
vt 0.612500 0.688440
vt 0.625000 0.688440
vt 0.648603 0.795466
vt 0.626409 0.751908
vt 0.591842 0.717341
vt 0.548284 0.695147
vt 0.500000 0.687500
vt 0.451716 0.695147
vt 0.408159 0.717341
vt 0.373591 0.751909
vt 0.351397 0.795466
vt 0.343750 0.843750
vt 0.351397 0.892034
vt 0.373591 0.935591
vt 0.408159 0.970159
vt 0.451716 0.992353
vt 0.500000 1.000000
vt 0.548284 0.992353
vt 0.591841 0.970159
vt 0.626409 0.935591
vt 0.648603 0.892034
vt 0.656250 0.843750
vt 0.500000 0.150000
vt 0.500000 0.837500
vt 0.375000 0.312500
vt 0.387500 0.312500
vt 0.387500 0.688440
vt 0.375000 0.688440
vt 0.400000 0.312500
vt 0.400000 0.688440
vt 0.412500 0.312500
vt 0.412500 0.688440
vt 0.425000 0.312500
vt 0.425000 0.688440
vt 0.437500 0.312500
vt 0.437500 0.688440
vt 0.450000 0.312500
vt 0.450000 0.688440
vt 0.462500 0.312500
vt 0.462500 0.688440
vt 0.475000 0.312500
vt 0.475000 0.688440
vt 0.487500 0.312500
vt 0.487500 0.688440
vt 0.500000 0.312500
vt 0.500000 0.688440
vt 0.512500 0.312500
vt 0.512500 0.688440
vt 0.525000 0.312500
vt 0.525000 0.688440
vt 0.537500 0.312500
vt 0.537500 0.688440
vt 0.550000 0.312500
vt 0.550000 0.688440
vt 0.562500 0.312500
vt 0.562500 0.688440
vt 0.575000 0.312500
vt 0.575000 0.688440
vt 0.587500 0.312500
vt 0.587500 0.688440
vt 0.600000 0.312500
vt 0.600000 0.688440
vt 0.612500 0.312500
vt 0.612500 0.688440
vt 0.625000 0.312500
vt 0.625000 0.688440
vn 0.512496 0.166520 0.842389
vn 0.435955 0.316740 0.842389
vn 0.435955 0.316740 0.842389
vn 0.512496 0.166519 0.842389
vn 0.316739 0.435954 0.842390
vn 0.316739 0.435954 0.842390
vn 0.166520 0.512494 0.842390
vn 0.166520 0.512494 0.842390
vn -0.000000 0.538869 0.842390
vn -0.000000 0.538869 0.842390
vn -0.166520 0.512495 0.842390
vn -0.166520 0.512495 0.842390
vn -0.316740 0.435954 0.842390
vn -0.316739 0.435954 0.842390
vn -0.435955 0.316740 0.842389
vn -0.435955 0.316740 0.842389
vn -0.512495 0.166520 0.842389
vn -0.512495 0.166520 0.842389
vn -0.538870 -0.000000 0.842389
vn -0.538870 0.000000 0.842389
vn -0.512495 -0.166520 0.842390
vn -0.512495 -0.166520 0.842390
vn -0.435954 -0.316739 0.842390
vn -0.435954 -0.316739 0.842390
vn -0.316740 -0.435954 0.842390
vn -0.316739 -0.435954 0.842390
vn -0.166519 -0.512495 0.842390
vn -0.166519 -0.512495 0.842390
vn -0.000000 -0.538868 0.842390
vn -0.000000 -0.538868 0.842390
vn 0.166520 -0.512496 0.842389
vn 0.166520 -0.512496 0.842389
vn 0.316740 -0.435955 0.842389
vn 0.316740 -0.435955 0.842389
vn 0.435955 -0.316740 0.842389
vn 0.435955 -0.316740 0.842389
vn 0.512496 -0.166520 0.842389
vn 0.512496 -0.166520 0.842389
vn 0.538870 -0.000001 0.842389
vn 0.538870 -0.000001 0.842389
vn 0.000000 0.000000 -1.000000
vn 0.000000 0.000000 -1.000000
vn -0.000000 0.000000 -1.000000
vn 0.000000 0.000000 -1.000000
vn -0.000000 0.000000 -1.000000
vn 0.000000 0.000000 -1.000000
vn 0.000000 0.000000 -1.000000
vn 0.000000 0.000000 -1.000000
vn 0.000000 0.000000 -1.000000
vn -0.000000 0.000000 -1.000000
vn 0.000000 0.000000 -1.000000
vn 0.000000 0.000000 -1.000000
vn 0.000000 0.000000 -1.000000
vn 0.000000 0.000000 -1.000000
vn 0.000000 0.000000 -1.000000
vn 0.000000 0.000000 -1.000000
vn -0.000000 0.000000 -1.000000
vn -0.000000 0.000000 -1.000000
vn 0.000000 0.000000 -1.000000
vn 0.000000 0.000000 -1.000000
vn 0.000000 0.000000 -1.000000
vn 0.000000 0.000000 1.000000
vn 0.000000 0.000000 1.000000
vn -0.000000 0.000000 1.000000
vn 0.000000 0.000000 1.000000
vn -0.000000 0.000000 1.000000
vn 0.000000 0.000000 1.000000
vn 0.000000 0.000000 1.000000
vn 0.000000 0.000000 1.000000
vn -0.000000 0.000000 1.000000
vn -0.000000 0.000000 1.000000
vn 0.000000 0.000000 1.000000
vn 0.000000 0.000000 1.000000
vn 0.000000 0.000000 1.000000
vn 0.000000 0.000000 1.000000
vn 0.000000 0.000000 1.000000
vn 0.000000 0.000000 1.000000
vn -0.000000 0.000000 1.000000
vn -0.000000 0.000000 1.000000
vn 0.000000 0.000000 1.000000
vn 0.000000 0.000000 1.000000
vn 0.000000 0.000000 1.000000
vn 0.268944 0.137034 -0.953358
vn 0.268944 0.137034 -0.953358
vn 0.268944 0.137034 -0.953358
vn 0.268944 0.137034 -0.953358
vn -0.260252 -0.132605 0.956391
vn -0.260252 -0.132605 0.956391
vn -0.260252 -0.132605 0.956391
vn -0.260252 -0.132605 0.956391
vn 0.213435 0.213435 -0.953358
vn 0.213435 0.213435 -0.953358
vn 0.213435 0.213435 -0.953358
vn 0.213435 0.213435 -0.953358
vn -0.206537 -0.206537 0.956391
vn -0.206537 -0.206537 0.956391
vn -0.206537 -0.206537 0.956391
vn -0.206537 -0.206537 0.956391
vn 0.137034 0.268944 -0.953358
vn 0.137034 0.268944 -0.953358
vn 0.137034 0.268944 -0.953358
vn 0.137034 0.268944 -0.953358
vn -0.132605 -0.260252 0.956391
vn -0.132605 -0.260252 0.956391
vn -0.132605 -0.260252 0.956391
vn -0.132605 -0.260252 0.956391
vn 0.047219 0.298126 -0.953358
vn 0.047219 0.298126 -0.953358
vn 0.047219 0.298126 -0.953358
vn 0.047219 0.298126 -0.953358
vn -0.045693 -0.288492 0.956392
vn -0.045693 -0.288492 0.956392
vn -0.045693 -0.288492 0.956391
vn -0.045693 -0.288492 0.956392
vn -0.047219 0.298127 -0.953358
vn -0.047219 0.298127 -0.953358
vn -0.047219 0.298127 -0.953358
vn -0.047219 0.298127 -0.953358
vn 0.045693 -0.288492 0.956391
vn 0.045693 -0.288492 0.956392
vn 0.045693 -0.288492 0.956391
vn 0.045693 -0.288492 0.956392
vn -0.137034 0.268944 -0.953358
vn -0.137034 0.268944 -0.953358
vn -0.137034 0.268944 -0.953358
vn -0.137034 0.268944 -0.953358
vn 0.132605 -0.260252 0.956391
vn 0.132605 -0.260252 0.956391
vn 0.132605 -0.260252 0.956391
vn 0.132605 -0.260252 0.956391
vn -0.213435 0.213435 -0.953358
vn -0.213435 0.213435 -0.953358
vn -0.213435 0.213435 -0.953358
vn -0.213435 0.213435 -0.953358
vn 0.206538 -0.206537 0.956391
vn 0.206538 -0.206537 0.956391
vn 0.206538 -0.206537 0.956391
vn 0.206538 -0.206537 0.956391
vn -0.268944 0.137034 -0.953358
vn -0.268944 0.137034 -0.953358
vn -0.268944 0.137034 -0.953358
vn -0.268944 0.137034 -0.953358
vn 0.260252 -0.132605 0.956392
vn 0.260252 -0.132605 0.956391
vn 0.260252 -0.132605 0.956391
vn 0.260252 -0.132605 0.956391
vn -0.298127 0.047219 -0.953358
vn -0.298127 0.047219 -0.953358
vn -0.298127 0.047219 -0.953358
vn -0.298127 0.047219 -0.953358
vn 0.288492 -0.045692 0.956391
vn 0.288492 -0.045692 0.956392
vn 0.288492 -0.045692 0.956391
vn 0.288492 -0.045692 0.956391
vn -0.298127 -0.047219 -0.953358
vn -0.298127 -0.047219 -0.953358
vn -0.298127 -0.047219 -0.953358
vn -0.298127 -0.047219 -0.953358
vn 0.288492 0.045692 0.956391
vn 0.288492 0.045692 0.956392
vn 0.288492 0.045692 0.956391
vn 0.288492 0.045692 0.956391
vn -0.268944 -0.137034 -0.953358
vn -0.268944 -0.137034 -0.953358
vn -0.268944 -0.137034 -0.953358
vn -0.268944 -0.137034 -0.953358
vn 0.260252 0.132605 0.956391
vn 0.260252 0.132605 0.956391
vn 0.260252 0.132605 0.956391
vn 0.260252 0.132605 0.956391
vn -0.213435 -0.213435 -0.953358
vn -0.213435 -0.213435 -0.953358
vn -0.213435 -0.213435 -0.953358
vn -0.213435 -0.213435 -0.953358
vn 0.206538 0.206537 0.956391
vn 0.206538 0.206537 0.956391
vn 0.206538 0.206537 0.956391
vn 0.206538 0.206537 0.956391
vn -0.137034 -0.268944 -0.953358
vn -0.137034 -0.268944 -0.953358
vn -0.137034 -0.268944 -0.953358
vn -0.137034 -0.268944 -0.953358
vn 0.132605 0.260252 0.956391
vn 0.132605 0.260252 0.956391
vn 0.132605 0.260252 0.956391
vn 0.132605 0.260252 0.956391
vn -0.047219 -0.298127 -0.953358
vn -0.047219 -0.298127 -0.953358
vn -0.047219 -0.298127 -0.953358
vn -0.047219 -0.298127 -0.953358
vn 0.045693 0.288492 0.956391
vn 0.045693 0.288492 0.956392
vn 0.045693 0.288492 0.956392
vn 0.045693 0.288492 0.956391
vn 0.047219 -0.298127 -0.953358
vn 0.047219 -0.298127 -0.953358
vn 0.047219 -0.298127 -0.953358
vn 0.047219 -0.298127 -0.953358
vn -0.045693 0.288492 0.956391
vn -0.045693 0.288492 0.956391
vn -0.045693 0.288492 0.956391
vn -0.045693 0.288492 0.956391
vn 0.137034 -0.268944 -0.953358
vn 0.137034 -0.268944 -0.953358
vn 0.137034 -0.268944 -0.953358
vn 0.137034 -0.268944 -0.953358
vn -0.132605 0.260252 0.956391
vn -0.132605 0.260252 0.956392
vn -0.132605 0.260252 0.956391
vn -0.132605 0.260252 0.956392
vn 0.213435 -0.213435 -0.953358
vn 0.213435 -0.213435 -0.953358
vn 0.213435 -0.213435 -0.953358
vn 0.213435 -0.213435 -0.953358
vn -0.206537 0.206537 0.956391
vn -0.206537 0.206537 0.956391
vn -0.206537 0.206537 0.956391
vn -0.206537 0.206537 0.956391
vn 0.268944 -0.137034 -0.953358
vn 0.268944 -0.137034 -0.953358
vn 0.268944 -0.137034 -0.953358
vn 0.268944 -0.137034 -0.953358
vn -0.260252 0.132605 0.956391
vn -0.260252 0.132605 0.956391
vn -0.260252 0.132605 0.956391
vn -0.260252 0.132605 0.956391
vn 0.298127 -0.047219 -0.953358
vn 0.298127 -0.047219 -0.953358
vn 0.298127 -0.047219 -0.953358
vn 0.298127 -0.047219 -0.953358
vn -0.288492 0.045692 0.956391
vn -0.288492 0.045692 0.956391
vn -0.288492 0.045692 0.956391
vn -0.288492 0.045692 0.956392
vn 0.298127 0.047218 -0.953358
vn 0.298127 0.047218 -0.953358
vn 0.298127 0.047218 -0.953358
vn 0.298127 0.047218 -0.953358
vn -0.288492 -0.045692 0.956392
vn -0.288492 -0.045692 0.956391
vn -0.288492 -0.045692 0.956392
vn -0.288492 -0.045692 0.956391
s 1
g pCylinder4
usemtl blinn6SG
f 43/85/1 44/86/2 45/87/3 46/88/4
f 44/86/2 47/89/5 48/90/6 45/87/3
f 47/89/5 49/91/7 50/92/8 48/90/6
f 49/91/7 51/93/9 52/94/10 50/92/8
f 51/93/9 53/95/11 54/96/12 52/94/10
f 53/95/11 55/97/13 56/98/14 54/96/12
f 55/97/13 57/99/15 58/100/16 56/98/14
f 57/99/15 59/101/17 60/102/18 58/100/16
f 59/101/17 61/103/19 62/104/20 60/102/18
f 61/103/19 63/105/21 64/106/22 62/104/20
f 63/105/21 65/107/23 66/108/24 64/106/22
f 65/107/23 67/109/25 68/110/26 66/108/24
f 67/109/25 69/111/27 70/112/28 68/110/26
f 69/111/27 71/113/29 72/114/30 70/112/28
f 71/113/29 73/115/31 74/116/32 72/114/30
f 73/115/31 75/117/33 76/118/34 74/116/32
f 75/117/33 77/119/35 78/120/36 76/118/34
f 77/119/35 79/121/37 80/122/38 78/120/36
f 79/121/37 81/123/39 82/124/40 80/122/38
f 81/123/39 43/125/1 46/126/4 82/124/40
s 2
f 2/2/41 1/1/42 41/83/43
f 3/3/44 2/2/41 41/83/43
f 4/4/45 3/3/44 41/83/43
f 5/5/46 4/4/45 41/83/43
f 6/6/47 5/5/46 41/83/43
f 7/7/48 6/6/47 41/83/43
f 8/8/49 7/7/48 41/83/43
f 9/9/50 8/8/49 41/83/43
f 10/10/51 9/9/50 41/83/43
f 11/11/52 10/10/51 41/83/43
f 12/12/53 11/11/52 41/83/43
f 13/13/54 12/12/53 41/83/43
f 14/14/55 13/13/54 41/83/43
f 15/15/56 14/14/55 41/83/43
f 16/16/57 15/15/56 41/83/43
f 17/17/58 16/16/57 41/83/43
f 18/18/59 17/17/58 41/83/43
f 19/19/60 18/18/59 41/83/43
f 20/20/61 19/19/60 41/83/43
f 1/1/42 20/20/61 41/83/43
s 3
f 21/81/62 22/80/63 42/84/64
f 22/80/63 23/79/65 42/84/64
f 23/79/65 24/78/66 42/84/64
f 24/78/66 25/77/67 42/84/64
f 25/77/67 26/76/68 42/84/64
f 26/76/68 27/75/69 42/84/64
f 27/75/69 28/74/70 42/84/64
f 28/74/70 29/73/71 42/84/64
f 29/73/71 30/72/72 42/84/64
f 30/72/72 31/71/73 42/84/64
f 31/71/73 32/70/74 42/84/64
f 32/70/74 33/69/75 42/84/64
f 33/69/75 34/68/76 42/84/64
f 34/68/76 35/67/77 42/84/64
f 35/67/77 36/66/78 42/84/64
f 36/66/78 37/65/79 42/84/64
f 37/65/79 38/64/80 42/84/64
f 38/64/80 39/63/81 42/84/64
f 39/63/81 40/82/82 42/84/64
f 40/82/82 21/81/62 42/84/64
s off
f 1/21/83 2/22/84 44/86/85 43/85/86
f 22/43/87 21/42/88 46/88/89 45/87/90
f 2/22/91 3/23/92 47/89/93 44/86/94
f 23/44/95 22/43/96 45/87/97 48/90/98
f 3/23/99 4/24/100 49/91/101 47/89/102
f 24/45/103 23/44/104 48/90/105 50/92/106
f 4/24/107 5/25/108 51/93/109 49/91/110
f 25/46/111 24/45/112 50/92/113 52/94/114
f 5/25/115 6/26/116 53/95/117 51/93/118
f 26/47/119 25/46/120 52/94/121 54/96/122
f 6/26/123 7/27/124 55/97/125 53/95/126
f 27/48/127 26/47/128 54/96/129 56/98/130
f 7/27/131 8/28/132 57/99/133 55/97/134
f 28/49/135 27/48/136 56/98/137 58/100/138
f 8/28/139 9/29/140 59/101/141 57/99/142
f 29/50/143 28/49/144 58/100/145 60/102/146
f 9/29/147 10/30/148 61/103/149 59/101/150
f 30/51/151 29/50/152 60/102/153 62/104/154
f 10/30/155 11/31/156 63/105/157 61/103/158
f 31/52/159 30/51/160 62/104/161 64/106/162
f 11/31/163 12/32/164 65/107/165 63/105/166
f 32/53/167 31/52/168 64/106/169 66/108/170
f 12/32/171 13/33/172 67/109/173 65/107/174
f 33/54/175 32/53/176 66/108/177 68/110/178
f 13/33/179 14/34/180 69/111/181 67/109/182
f 34/55/183 33/54/184 68/110/185 70/112/186
f 14/34/187 15/35/188 71/113/189 69/111/190
f 35/56/191 34/55/192 70/112/193 72/114/194
f 15/35/195 16/36/196 73/115/197 71/113/198
f 36/57/199 35/56/200 72/114/201 74/116/202
f 16/36/203 17/37/204 75/117/205 73/115/206
f 37/58/207 36/57/208 74/116/209 76/118/210
f 17/37/211 18/38/212 77/119/213 75/117/214
f 38/59/215 37/58/216 76/118/217 78/120/218
f 18/38/219 19/39/220 79/121/221 77/119/222
f 39/60/223 38/59/224 78/120/225 80/122/226
f 19/39/227 20/40/228 81/123/229 79/121/230
f 40/61/231 39/60/232 80/122/233 82/124/234
f 20/40/235 1/41/236 43/125/237 81/123/238
f 21/62/239 40/61/240 82/124/241 46/126/242
